<?xml version="1.0" standalone="no"?>
<!DOCTYPE svg PUBLIC "-//W3C//DTD SVG 20010904//EN"
 "http://www.w3.org/TR/2001/REC-SVG-20010904/DTD/svg10.dtd">
<svg version="1.0" xmlns="http://www.w3.org/2000/svg"
 width="700.000000pt" height="700.000000pt" viewBox="0 0 700.000000 700.000000"
 preserveAspectRatio="xMidYMid meet">
<metadata>
Created by potrace 1.11, written by Peter Selinger 2001-2013
</metadata>
<g transform="translate(0.000000,700.000000) scale(0.100000,-0.100000)"
fill="#000000" stroke="none">
<path d="M3473 6027 c-11 -17 -43 -63 -70 -102 -27 -38 -157 -223 -288 -410
-131 -187 -261 -374 -289 -415 -28 -41 -56 -81 -63 -88 -36 -38 -212 -354
-234 -421 -3 -9 -34 6 -105 53 -56 36 -141 85 -190 110 -97 48 -324 156 -329
156 -1 0 -92 42 -201 94 -253 119 -310 145 -469 218 -71 33 -154 71 -183 85
-29 14 -55 23 -56 22 -2 -2 -7 -42 -10 -89 -4 -47 -9 -103 -11 -125 -3 -22 -7
-71 -10 -110 -3 -38 -8 -88 -10 -110 -2 -22 -9 -101 -16 -175 -6 -74 -12 -151
-14 -170 -2 -19 -7 -75 -11 -124 -9 -122 -9 -121 -30 -119 -10 2 -66 10 -124
18 -58 9 -123 18 -145 21 -22 3 -51 7 -65 9 -14 3 -45 7 -70 11 -25 3 -56 7
-70 10 -14 2 -59 8 -101 14 -41 6 -86 13 -100 15 -13 3 -46 7 -73 11 -28 3
-69 9 -93 13 -44 9 -44 8 -39 -18 3 -14 8 -48 11 -76 3 -27 8 -61 10 -75 18
-116 45 -303 50 -340 3 -25 8 -56 10 -70 2 -14 7 -45 10 -70 3 -25 10 -70 15
-100 5 -30 12 -80 16 -110 3 -30 8 -58 10 -61 2 -3 6 -32 10 -64 3 -32 8 -68
10 -79 2 -12 7 -41 10 -66 3 -25 10 -63 14 -85 5 -22 11 -56 15 -75 20 -126
105 -371 185 -535 262 -543 710 -996 1256 -1272 87 -44 163 -81 167 -81 9 0
57 -18 102 -37 69 -30 330 -97 435 -110 40 -6 129 -19 200 -30 14 -2 61 -9
105 -15 44 -6 94 -14 110 -16 17 -2 44 -6 60 -8 28 -4 219 -32 275 -41 14 -2
61 -9 105 -15 44 -6 91 -13 105 -15 14 -3 49 -7 78 -11 29 -3 65 -9 79 -13 30
-8 50 -6 373 44 14 2 48 6 75 10 28 3 75 10 105 15 30 5 78 12 105 15 28 4 57
8 65 10 8 2 42 7 75 11 33 3 69 8 80 10 10 2 37 6 60 9 22 4 51 8 65 10 52 8
157 24 200 30 406 57 841 256 1200 548 134 109 322 295 405 401 17 21 40 50
53 65 35 41 154 217 210 311 112 190 237 499 267 662 3 13 7 34 10 48 3 14 9
50 15 80 6 30 12 64 14 75 3 17 13 84 22 150 1 11 5 34 7 50 3 17 8 53 12 80
3 28 12 91 20 140 7 50 16 113 20 140 3 28 8 57 10 65 2 8 6 35 9 60 4 25 8
56 10 70 3 14 12 77 20 140 9 63 18 126 21 139 2 12 6 42 9 65 l5 42 -77 -12
c-42 -6 -97 -14 -122 -17 -25 -4 -106 -15 -180 -27 -74 -11 -153 -23 -175 -26
-22 -3 -80 -11 -130 -19 -49 -8 -115 -17 -145 -20 -30 -4 -57 -8 -61 -11 -13
-8 -17 9 -23 106 -4 52 -8 111 -10 130 -3 19 -7 71 -11 115 -3 44 -8 98 -10
120 -3 22 -7 72 -10 110 -2 39 -7 90 -9 115 -6 57 -15 153 -22 249 -3 42 -7
77 -9 79 -3 4 -68 -24 -204 -89 -68 -32 -125 -59 -127 -59 -1 0 -54 -24 -116
-54 -62 -29 -138 -65 -168 -78 -131 -60 -523 -244 -609 -286 -51 -25 -142 -78
-202 -117 -60 -40 -109 -68 -109 -63 0 17 -79 180 -128 263 -26 44 -81 130
-122 190 -113 165 -613 879 -620 885 -3 3 -26 35 -50 72 -25 38 -47 68 -50 68
-3 0 -15 -15 -27 -33z m34 -5047 c1 -11 -2 -18 -8 -15 -11 7 -12 35 -1 35 4 0
8 -9 9 -20z"/>
</g>
</svg>
